<svg width="20" height="21" viewBox="0 0 20 21" fill="none" xmlns="http://www.w3.org/2000/svg">
<path d="M10 0.732422C12.717 0.732422 13.056 0.742422 14.122 0.792422C15.187 0.842422 15.912 1.00942 16.55 1.25742C17.21 1.51142 17.766 1.85542 18.322 2.41042C18.8305 2.91032 19.224 3.51501 19.475 4.18242C19.722 4.81942 19.89 5.54542 19.94 6.61042C19.987 7.67642 20 8.01542 20 10.7324C20 13.4494 19.99 13.7884 19.94 14.8544C19.89 15.9194 19.722 16.6444 19.475 17.2824C19.2247 17.9502 18.8311 18.555 18.322 19.0544C17.822 19.5627 17.2173 19.9562 16.55 20.2074C15.913 20.4544 15.187 20.6224 14.122 20.6724C13.056 20.7194 12.717 20.7324 10 20.7324C7.283 20.7324 6.944 20.7224 5.878 20.6724C4.813 20.6224 4.088 20.4544 3.45 20.2074C2.78233 19.9569 2.17753 19.5634 1.678 19.0544C1.16941 18.5546 0.775931 17.9499 0.525 17.2824C0.277 16.6454 0.11 15.9194 0.0599999 14.8544C0.0129999 13.7884 0 13.4494 0 10.7324C0 8.01542 0.00999994 7.67642 0.0599999 6.61042C0.11 5.54442 0.277 4.82042 0.525 4.18242C0.775236 3.5146 1.1688 2.90974 1.678 2.41042C2.17767 1.90165 2.78243 1.50815 3.45 1.25742C4.088 1.00942 4.812 0.842422 5.878 0.792422C6.944 0.745422 7.283 0.732422 10 0.732422ZM10 5.73242C8.67392 5.73242 7.40215 6.25921 6.46447 7.19689C5.52678 8.13457 5 9.40634 5 10.7324C5 12.0585 5.52678 13.3303 6.46447 14.268C7.40215 15.2056 8.67392 15.7324 10 15.7324C11.3261 15.7324 12.5979 15.2056 13.5355 14.268C14.4732 13.3303 15 12.0585 15 10.7324C15 9.40634 14.4732 8.13457 13.5355 7.19689C12.5979 6.25921 11.3261 5.73242 10 5.73242ZM16.5 5.48242C16.5 5.1509 16.3683 4.83296 16.1339 4.59854C15.8995 4.36412 15.5815 4.23242 15.25 4.23242C14.9185 4.23242 14.6005 4.36412 14.3661 4.59854C14.1317 4.83296 14 5.1509 14 5.48242C14 5.81394 14.1317 6.13189 14.3661 6.36631C14.6005 6.60073 14.9185 6.73242 15.25 6.73242C15.5815 6.73242 15.8995 6.60073 16.1339 6.36631C16.3683 6.13189 16.5 5.81394 16.5 5.48242ZM10 7.73242C10.7956 7.73242 11.5587 8.04849 12.1213 8.6111C12.6839 9.17371 13 9.93677 13 10.7324C13 11.5281 12.6839 12.2911 12.1213 12.8537C11.5587 13.4164 10.7956 13.7324 10 13.7324C9.20435 13.7324 8.44129 13.4164 7.87868 12.8537C7.31607 12.2911 7 11.5281 7 10.7324C7 9.93677 7.31607 9.17371 7.87868 8.6111C8.44129 8.04849 9.20435 7.73242 10 7.73242Z" fill="#B9EDAA"/>
</svg>
