<svg width="18" height="23" viewBox="0 0 18 23" fill="none" xmlns="http://www.w3.org/2000/svg">
<path d="M9 22.4603L2.636 16.0963C1.37734 14.8377 0.520187 13.234 0.172928 11.4882C-0.17433 9.74237 0.00390685 7.93277 0.685099 6.28825C1.36629 4.64372 2.51984 3.23812 3.99988 2.24919C5.47992 1.26026 7.21998 0.732422 9 0.732422C10.78 0.732422 12.5201 1.26026 14.0001 2.24919C15.4802 3.23812 16.6337 4.64372 17.3149 6.28825C17.9961 7.93277 18.1743 9.74237 17.8271 11.4882C17.4798 13.234 16.6227 14.8377 15.364 16.0963L9 22.4603ZM13.95 14.6823C14.9289 13.7033 15.5955 12.4561 15.8656 11.0982C16.1356 9.74037 15.9969 8.33294 15.4671 7.0539C14.9373 5.77486 14.04 4.68165 12.8889 3.91251C11.7378 3.14337 10.3844 2.73285 9 2.73285C7.61557 2.73285 6.26222 3.14337 5.11109 3.91251C3.95996 4.68165 3.06275 5.77486 2.53292 7.0539C2.00308 8.33294 1.86442 9.74037 2.13445 11.0982C2.40449 12.4561 3.07111 13.7033 4.05 14.6823L9 19.6323L13.95 14.6823ZM9 11.7323C8.46957 11.7323 7.96086 11.5216 7.58579 11.1466C7.21072 10.7715 7 10.2628 7 9.73234C7 9.20191 7.21072 8.6932 7.58579 8.31813C7.96086 7.94306 8.46957 7.73234 9 7.73234C9.53044 7.73234 10.0391 7.94306 10.4142 8.31813C10.7893 8.6932 11 9.20191 11 9.73234C11 10.2628 10.7893 10.7715 10.4142 11.1466C10.0391 11.5216 9.53044 11.7323 9 11.7323Z" fill="#003828"/>
</svg>
