<svg width="197" height="38" viewBox="0 0 197 38" fill="none" xmlns="http://www.w3.org/2000/svg">
<path d="M31.2798 0.5L27.3398 6.58282H34.1398V28.8218H27.3905V34.9046H40.2226V0.5H31.2798Z" fill="#D1A4C4"/>
<path d="M6.76251 28.8218V6.58282H7.37838L18.3544 20.4442L21.8472 15.0532L10.3143 0.5H0.679688V34.9046H8.98978L12.9297 28.8218H6.76251Z" fill="#D1A4C4"/>
<path d="M74.4995 10.0078V26.898C74.4995 27.033 74.3899 27.1427 74.2549 27.1427H71.8926C71.7576 27.1427 71.648 27.033 71.648 26.898V15.2386L66.4088 26.9992C66.3666 27.0836 66.2823 27.1427 66.181 27.1427H64.5274C64.4346 27.1427 64.3418 27.0836 64.2996 26.9992L59.0352 15.2386V26.898C59.0352 27.033 58.9255 27.1427 58.7905 27.1427H56.4283C56.2933 27.1427 56.1836 27.033 56.1836 26.898V10.0078C56.1836 9.87286 56.2933 9.76318 56.4283 9.76318H59.1027C59.1955 9.76318 59.2883 9.82224 59.3305 9.90661L65.3711 23.3884L71.3864 9.90661C71.4286 9.82224 71.513 9.76318 71.6142 9.76318H74.2633C74.3983 9.76318 74.508 9.87286 74.508 10.0078H74.4995Z" fill="#D1A4C4"/>
<path d="M90.4631 13.6102V26.898C90.4631 27.0329 90.3534 27.1426 90.2184 27.1426H87.8562C87.7212 27.1426 87.6115 27.0329 87.6115 26.898V25.5143C87.1644 26.0796 86.5738 26.5267 85.8482 26.8558C85.1227 27.1848 84.355 27.3451 83.5366 27.3451C82.4483 27.3451 81.4781 27.1173 80.626 26.6702C79.7739 26.223 79.0905 25.5565 78.6012 24.6707C78.1119 23.7848 77.8672 22.7218 77.8672 21.4732V13.6187C77.8672 13.4837 77.9769 13.374 78.1119 13.374H80.4488C80.5838 13.374 80.6935 13.4837 80.6935 13.6187V21.0514C80.6935 22.2831 81.0056 23.228 81.6215 23.8861C82.2374 24.5441 83.081 24.8732 84.144 24.8732C85.2071 24.8732 86.0592 24.5441 86.6835 23.8861C87.3078 23.228 87.6199 22.2831 87.6199 21.0514V13.6187C87.6199 13.4837 87.7296 13.374 87.8646 13.374H90.2269C90.3619 13.374 90.4715 13.4837 90.4715 13.6187L90.4631 13.6102Z" fill="#D1A4C4"/>
<path d="M115.451 13.6102V26.898C115.451 27.0329 115.342 27.1426 115.207 27.1426H112.844C112.709 27.1426 112.6 27.0329 112.6 26.898V25.5143C112.153 26.0796 111.562 26.5267 110.837 26.8558C110.111 27.1848 109.343 27.3451 108.525 27.3451C107.437 27.3451 106.466 27.1173 105.614 26.6702C104.762 26.223 104.079 25.5565 103.589 24.6707C103.1 23.7848 102.855 22.7218 102.855 21.4732V13.6187C102.855 13.4837 102.965 13.374 103.1 13.374H105.437C105.572 13.374 105.682 13.4837 105.682 13.6187V21.0514C105.682 22.2831 105.994 23.228 106.61 23.8861C107.226 24.5441 108.069 24.8732 109.132 24.8732C110.195 24.8732 111.047 24.5441 111.672 23.8861C112.296 23.228 112.608 22.2831 112.608 21.0514V13.6187C112.608 13.4837 112.718 13.374 112.853 13.374H115.215C115.35 13.374 115.46 13.4837 115.46 13.6187L115.451 13.6102Z" fill="#D1A4C4"/>
<path d="M146.371 13.6104V26.8981C146.371 27.0331 146.261 27.1428 146.126 27.1428H143.764C143.629 27.1428 143.52 27.0331 143.52 26.8981V13.6104C143.52 13.4754 143.629 13.3657 143.764 13.3657H146.126C146.261 13.3657 146.371 13.4754 146.371 13.6104Z" fill="#D1A4C4"/>
<path d="M146.448 8.28665V10.7755C146.448 10.9105 146.338 11.0201 146.203 11.0201H143.698C143.563 11.0201 143.453 10.9105 143.453 10.7755V8.28665C143.453 8.15167 143.563 8.04199 143.698 8.04199H146.203C146.338 8.04199 146.448 8.15167 146.448 8.28665Z" fill="#D1A4C4"/>
<path d="M149.669 16.5125C150.243 15.4495 151.027 14.6143 152.023 14.0237C153.018 13.4331 154.115 13.1378 155.339 13.1378C156.241 13.1378 157.127 13.3319 158.005 13.7284C158.882 14.1165 159.574 14.6396 160.088 15.2892V8.88578C160.088 8.75079 160.198 8.64111 160.333 8.64111H162.721C162.856 8.64111 162.965 8.75079 162.965 8.88578V26.898C162.965 27.033 162.856 27.1427 162.721 27.1427H160.333C160.198 27.1427 160.088 27.033 160.088 26.898V25.0673C159.624 25.7337 158.975 26.2821 158.148 26.7208C157.321 27.1595 156.376 27.3705 155.313 27.3705C154.115 27.3705 153.018 27.0667 152.023 26.4593C151.027 25.8519 150.251 24.9998 149.669 23.9114C149.095 22.8231 148.809 21.5829 148.809 20.1993C148.809 18.8157 149.095 17.5924 149.669 16.5209V16.5125ZM159.498 17.7611C159.11 17.0609 158.595 16.5294 157.962 16.1582C157.33 15.7869 156.646 15.6098 155.912 15.6098C155.178 15.6098 154.495 15.7869 153.862 16.1497C153.229 16.5125 152.715 17.0356 152.327 17.7274C151.939 18.4192 151.736 19.2375 151.736 20.1909C151.736 21.1442 151.93 21.971 152.327 22.6881C152.715 23.4052 153.238 23.9536 153.879 24.3248C154.52 24.696 155.204 24.8901 155.921 24.8901C156.638 24.8901 157.338 24.7045 157.971 24.3417C158.604 23.9789 159.118 23.439 159.506 22.7303C159.894 22.0216 160.097 21.1948 160.097 20.2415C160.097 19.2882 159.903 18.4698 159.506 17.7696L159.498 17.7611Z" fill="#D1A4C4"/>
<path d="M183.384 16.5125C183.958 15.4495 184.742 14.6143 185.738 14.0237C186.733 13.4331 187.83 13.1378 189.053 13.1378C189.956 13.1378 190.842 13.3319 191.719 13.7284C192.597 14.1165 193.289 14.6396 193.803 15.2892V8.88578C193.803 8.75079 193.913 8.64111 194.048 8.64111H196.435C196.57 8.64111 196.68 8.75079 196.68 8.88578V26.898C196.68 27.033 196.57 27.1427 196.435 27.1427H194.048C193.913 27.1427 193.803 27.033 193.803 26.898V25.0673C193.339 25.7337 192.69 26.2821 191.863 26.7208C191.036 27.1595 190.091 27.3705 189.028 27.3705C187.83 27.3705 186.733 27.0667 185.738 26.4593C184.742 25.8519 183.966 24.9998 183.384 23.9114C182.81 22.8231 182.523 21.5829 182.523 20.1993C182.523 18.8157 182.81 17.5924 183.384 16.5209V16.5125ZM193.213 17.7611C192.825 17.0609 192.31 16.5294 191.677 16.1582C191.044 15.7869 190.361 15.6098 189.627 15.6098C188.893 15.6098 188.21 15.7869 187.577 16.1497C186.944 16.5125 186.43 17.0356 186.042 17.7274C185.653 18.4192 185.451 19.2375 185.451 20.1909C185.451 21.1442 185.645 21.971 186.042 22.6881C186.43 23.4052 186.953 23.9536 187.594 24.3248C188.235 24.696 188.918 24.8901 189.636 24.8901C190.353 24.8901 191.053 24.7045 191.686 24.3417C192.318 23.9789 192.833 23.439 193.221 22.7303C193.609 22.0216 193.812 21.1948 193.812 20.2415C193.812 19.2882 193.618 18.4698 193.221 17.7696L193.213 17.7611Z" fill="#D1A4C4"/>
<path d="M100.662 15.6859C100.797 15.6859 100.906 15.5762 100.906 15.4413V13.6021C100.906 13.4671 100.797 13.3574 100.662 13.3574H97.557V10.1768C97.557 10.0418 97.4473 9.93213 97.3123 9.93213H94.9248C94.7898 9.93213 94.6801 10.0418 94.6801 10.1768V13.3574H92.8072C92.6722 13.3574 92.5625 13.4671 92.5625 13.6021V15.4413C92.5625 15.5762 92.6722 15.6859 92.8072 15.6859H94.6801V23.3126C94.6801 24.6625 95.0176 25.6412 95.7094 26.2402C96.3927 26.8392 97.3798 27.1429 98.6622 27.1429H100.67C100.805 27.1429 100.915 27.0332 100.915 26.8982V25.0168C100.915 24.8819 100.805 24.7722 100.67 24.7722H97.5654V15.6944H100.67L100.662 15.6859Z" fill="#D1A4C4"/>
<path d="M133.632 24.7298H132.071V13.6018C132.071 13.4669 131.961 13.3572 131.826 13.3572H129.439C129.304 13.3572 129.194 13.4669 129.194 13.6018V15.3567C128.713 14.7239 128.063 14.1924 127.253 13.7706C126.443 13.3487 125.499 13.1294 124.419 13.1294C123.221 13.1294 122.124 13.4247 121.128 14.0152C120.133 14.6058 119.357 15.4326 118.775 16.504C118.201 17.5671 117.914 18.7988 117.914 20.1824C117.914 21.566 118.201 22.8062 118.775 23.8945C119.348 24.9829 120.133 25.835 121.112 26.4424C122.099 27.0499 123.179 27.3536 124.36 27.3536C125.423 27.3536 126.376 27.1342 127.211 26.7039C128.046 26.2737 128.705 25.7253 129.185 25.0757H129.312C129.261 25.9868 130.113 27.1258 131.193 27.1258H133.615C133.75 27.1258 133.859 27.0161 133.859 26.8811V24.966C133.859 24.831 133.75 24.7213 133.615 24.7213L133.632 24.7298ZM128.612 22.7219C128.224 23.4305 127.709 23.9705 127.076 24.3333C126.444 24.696 125.76 24.8816 125.026 24.8816C124.292 24.8816 123.626 24.696 122.984 24.3164C122.343 23.9452 121.829 23.3968 121.432 22.6797C121.044 21.9626 120.842 21.1273 120.842 20.1824C120.842 19.2375 121.036 18.4107 121.432 17.7189C121.82 17.0271 122.335 16.5041 122.968 16.1413C123.6 15.7785 124.284 15.6013 125.018 15.6013C125.752 15.6013 126.435 15.7869 127.068 16.1497C127.701 16.5125 128.215 17.0524 128.603 17.7527C128.991 18.4529 129.194 19.2797 129.194 20.2246C129.194 21.1695 129 22.0047 128.603 22.7134L128.612 22.7219Z" fill="#D1A4C4"/>
<path d="M138.502 22.9329V8.75931C138.502 8.62432 138.392 8.51465 138.257 8.51465H135.87C135.735 8.51465 135.625 8.62432 135.625 8.75931V23.321C135.625 24.6708 135.962 25.6495 136.654 26.2485C137.338 26.8475 138.325 27.1512 139.607 27.1512H141.615C141.75 27.1512 141.86 27.0415 141.86 26.9065V25.0252C141.86 24.8902 141.75 24.7805 141.615 24.7805H138.51V22.9497L138.502 22.9329Z" fill="#D1A4C4"/>
<path d="M181.104 24.7298H179.543V13.6018C179.543 13.4669 179.434 13.3572 179.299 13.3572H176.911C176.776 13.3572 176.667 13.4669 176.667 13.6018V15.3567C176.186 14.7239 175.536 14.1924 174.726 13.7706C173.916 13.3487 172.971 13.1294 171.891 13.1294C170.693 13.1294 169.597 13.4247 168.601 14.0152C167.606 14.6058 166.829 15.4326 166.247 16.504C165.674 17.5671 165.387 18.7988 165.387 20.1824C165.387 21.566 165.674 22.8062 166.247 23.8945C166.821 24.9829 167.606 25.835 168.584 26.4424C169.571 27.0499 170.651 27.3536 171.832 27.3536C172.895 27.3536 173.849 27.1342 174.684 26.7039C175.519 26.2737 176.177 25.7253 176.658 25.0757H176.785C176.734 25.9868 177.586 27.1258 178.666 27.1258H181.087C181.222 27.1258 181.332 27.0161 181.332 26.8811V24.966C181.332 24.831 181.222 24.7213 181.087 24.7213L181.104 24.7298ZM176.084 22.7219C175.696 23.4305 175.182 23.9705 174.549 24.3333C173.916 24.696 173.233 24.8816 172.499 24.8816C171.765 24.8816 171.098 24.696 170.457 24.3164C169.816 23.9452 169.301 23.3968 168.905 22.6797C168.517 21.9626 168.314 21.1273 168.314 20.1824C168.314 19.2375 168.508 18.4107 168.905 17.7189C169.293 17.0271 169.808 16.5041 170.44 16.1413C171.073 15.7785 171.756 15.6013 172.49 15.6013C173.224 15.6013 173.908 15.7869 174.54 16.1497C175.173 16.5125 175.688 17.0524 176.076 17.7527C176.464 18.4529 176.667 19.2797 176.667 20.2246C176.667 21.1695 176.472 22.0047 176.076 22.7134L176.084 22.7219Z" fill="#D1A4C4"/>
</svg>
