<svg width="156" height="30" viewBox="0 0 156 30" fill="none" xmlns="http://www.w3.org/2000/svg">
<path d="M24.9311 0.394775L21.8206 5.197H27.189V22.7541H21.8606V27.5563H31.9912V0.394775H24.9311Z" fill="white"/>
<path d="M5.57566 22.7541V5.197H6.06188L14.7272 16.1402L17.4846 11.8841L8.37973 0.394775H0.773438V27.5563H7.33404L10.4445 22.7541H5.57566Z" fill="white"/>
<path d="M59.0529 7.90104V21.2354C59.0529 21.3419 58.9663 21.4285 58.8597 21.4285H56.9948C56.8882 21.4285 56.8016 21.3419 56.8016 21.2354V12.0306L52.6654 21.3153C52.6321 21.3819 52.5655 21.4285 52.4856 21.4285H51.1801C51.1069 21.4285 51.0336 21.3819 51.0003 21.3153L46.8441 12.0306V21.2354C46.8441 21.3419 46.7576 21.4285 46.651 21.4285H44.7861C44.6795 21.4285 44.5929 21.3419 44.5929 21.2354V7.90104C44.5929 7.79447 44.6795 7.70789 44.7861 7.70789H46.8974C46.9707 7.70789 47.044 7.75451 47.0773 7.82111L51.8462 18.4646L56.5951 7.82111C56.6284 7.75451 56.695 7.70789 56.775 7.70789H58.8664C58.9729 7.70789 59.0595 7.79447 59.0595 7.90104H59.0529Z" fill="white"/>
<path d="M71.6545 10.7451V21.2354C71.6545 21.342 71.5679 21.4285 71.4614 21.4285H69.5964C69.4899 21.4285 69.4033 21.342 69.4033 21.2354V20.1431C69.0503 20.5893 68.584 20.9423 68.0112 21.2021C67.4384 21.4618 66.8323 21.5884 66.1862 21.5884C65.327 21.5884 64.5611 21.4086 63.8884 21.0556C63.2157 20.7025 62.6762 20.1764 62.2899 19.477C61.9035 18.7777 61.7104 17.9384 61.7104 16.9527V10.7517C61.7104 10.6452 61.797 10.5586 61.9035 10.5586H63.7485C63.8551 10.5586 63.9417 10.6452 63.9417 10.7517V16.6197C63.9417 17.5921 64.1881 18.3381 64.6743 18.8576C65.1605 19.3771 65.8266 19.6369 66.6658 19.6369C67.505 19.6369 68.1777 19.3771 68.6706 18.8576C69.1635 18.3381 69.4099 17.5921 69.4099 16.6197V10.7517C69.4099 10.6452 69.4965 10.5586 69.6031 10.5586H71.468C71.5746 10.5586 71.6612 10.6452 71.6612 10.7517L71.6545 10.7451Z" fill="white"/>
<path d="M91.3829 10.7451V21.2354C91.3829 21.342 91.2963 21.4285 91.1898 21.4285H89.3248C89.2183 21.4285 89.1317 21.342 89.1317 21.2354V20.1431C88.7787 20.5893 88.3124 20.9423 87.7396 21.2021C87.1668 21.4618 86.5607 21.5884 85.9146 21.5884C85.0554 21.5884 84.2895 21.4086 83.6168 21.0556C82.9441 20.7025 82.4046 20.1764 82.0182 19.477C81.6319 18.7777 81.4388 17.9384 81.4388 16.9527V10.7517C81.4388 10.6452 81.5254 10.5586 81.6319 10.5586H83.4769C83.5835 10.5586 83.6701 10.6452 83.6701 10.7517V16.6197C83.6701 17.5921 83.9165 18.3381 84.4027 18.8576C84.8889 19.3771 85.555 19.6369 86.3942 19.6369C87.2334 19.6369 87.9061 19.3771 88.399 18.8576C88.8919 18.3381 89.1383 17.5921 89.1383 16.6197V10.7517C89.1383 10.6452 89.2249 10.5586 89.3315 10.5586H91.1964C91.303 10.5586 91.3896 10.6452 91.3896 10.7517L91.3829 10.7451Z" fill="white"/>
<path d="M115.794 10.7451V21.2354C115.794 21.342 115.707 21.4285 115.601 21.4285H113.736C113.629 21.4285 113.542 21.342 113.542 21.2354V10.7451C113.542 10.6385 113.629 10.5519 113.736 10.5519H115.601C115.707 10.5519 115.794 10.6385 115.794 10.7451Z" fill="white"/>
<path d="M115.854 6.54228V8.50713C115.854 8.61369 115.767 8.70028 115.66 8.70028H113.682C113.576 8.70028 113.489 8.61369 113.489 8.50713V6.54228C113.489 6.43571 113.576 6.34912 113.682 6.34912H115.66C115.767 6.34912 115.854 6.43571 115.854 6.54228Z" fill="white"/>
<path d="M118.398 13.0363C118.851 12.197 119.47 11.5377 120.256 11.0714C121.042 10.6052 121.908 10.3721 122.874 10.3721C123.586 10.3721 124.286 10.5253 124.979 10.8383C125.671 11.1447 126.217 11.5576 126.624 12.0705V7.01518C126.624 6.90861 126.71 6.82202 126.817 6.82202H128.702C128.808 6.82202 128.895 6.90861 128.895 7.01518V21.2354C128.895 21.3419 128.808 21.4285 128.702 21.4285H126.817C126.71 21.4285 126.624 21.3419 126.624 21.2354V19.79C126.257 20.3162 125.744 20.7491 125.092 21.0955C124.439 21.4418 123.693 21.6083 122.854 21.6083C121.908 21.6083 121.042 21.3686 120.256 20.889C119.47 20.4095 118.858 19.7367 118.398 18.8775C117.945 18.0183 117.719 17.0392 117.719 15.9469C117.719 14.8546 117.945 13.8888 118.398 13.0429V13.0363ZM126.157 14.022C125.851 13.4692 125.445 13.0496 124.945 12.7565C124.446 12.4635 123.906 12.3236 123.327 12.3236C122.747 12.3236 122.208 12.4635 121.708 12.7499C121.209 13.0363 120.802 13.4492 120.496 13.9954C120.19 14.5415 120.03 15.1876 120.03 15.9403C120.03 16.6929 120.183 17.3456 120.496 17.9118C120.802 18.4779 121.215 18.9108 121.722 19.2039C122.228 19.497 122.767 19.6502 123.333 19.6502C123.9 19.6502 124.452 19.5036 124.952 19.2172C125.451 18.9308 125.858 18.5045 126.164 17.9451C126.47 17.3856 126.63 16.7329 126.63 15.9802C126.63 15.2276 126.477 14.5815 126.164 14.0287L126.157 14.022Z" fill="white"/>
<path d="M145.013 13.0363C145.466 12.197 146.086 11.5377 146.872 11.0714C147.658 10.6052 148.523 10.3721 149.489 10.3721C150.202 10.3721 150.901 10.5253 151.594 10.8383C152.287 11.1447 152.833 11.5576 153.239 12.0705V7.01518C153.239 6.90861 153.326 6.82202 153.432 6.82202H155.317C155.424 6.82202 155.51 6.90861 155.51 7.01518V21.2354C155.51 21.3419 155.424 21.4285 155.317 21.4285H153.432C153.326 21.4285 153.239 21.3419 153.239 21.2354V19.79C152.873 20.3162 152.36 20.7491 151.707 21.0955C151.054 21.4418 150.308 21.6083 149.469 21.6083C148.523 21.6083 147.658 21.3686 146.872 20.889C146.086 20.4095 145.473 19.7367 145.013 18.8775C144.56 18.0183 144.334 17.0392 144.334 15.9469C144.334 14.8546 144.56 13.8888 145.013 13.0429V13.0363ZM152.773 14.022C152.466 13.4692 152.06 13.0496 151.561 12.7565C151.061 12.4635 150.522 12.3236 149.942 12.3236C149.363 12.3236 148.823 12.4635 148.324 12.7499C147.824 13.0363 147.418 13.4492 147.111 13.9954C146.805 14.5415 146.645 15.1876 146.645 15.9403C146.645 16.6929 146.798 17.3456 147.111 17.9118C147.418 18.4779 147.831 18.9108 148.337 19.2039C148.843 19.497 149.383 19.6502 149.949 19.6502C150.515 19.6502 151.068 19.5036 151.567 19.2172C152.067 18.9308 152.473 18.5045 152.779 17.9451C153.086 17.3856 153.246 16.7329 153.246 15.9802C153.246 15.2276 153.092 14.5815 152.779 14.0287L152.773 14.022Z" fill="white"/>
<path d="M79.7071 12.3835C79.8136 12.3835 79.9002 12.2969 79.9002 12.1904V10.7384C79.9002 10.6318 79.8136 10.5452 79.7071 10.5452H77.256V8.03422C77.256 7.92765 77.1694 7.84106 77.0629 7.84106H75.1779C75.0714 7.84106 74.9848 7.92765 74.9848 8.03422V10.5452H73.5061C73.3996 10.5452 73.313 10.6318 73.313 10.7384V12.1904C73.313 12.2969 73.3996 12.3835 73.5061 12.3835H74.9848V18.4046C74.9848 19.4703 75.2512 20.2429 75.7974 20.7158C76.3369 21.1887 77.1161 21.4285 78.1285 21.4285H79.7137C79.8203 21.4285 79.9069 21.3419 79.9069 21.2353V19.75C79.9069 19.6435 79.8203 19.5569 79.7137 19.5569H77.2627V12.3902H79.7137L79.7071 12.3835Z" fill="white"/>
<path d="M105.736 19.5236H104.504V10.7384C104.504 10.6318 104.417 10.5453 104.311 10.5453H102.426C102.319 10.5453 102.233 10.6318 102.233 10.7384V12.1238C101.853 11.6243 101.34 11.2046 100.701 10.8716C100.062 10.5386 99.3155 10.3654 98.463 10.3654C97.5172 10.3654 96.6513 10.5985 95.8654 11.0648C95.0795 11.531 94.4667 12.1837 94.0071 13.0296C93.5542 13.8688 93.3278 14.8413 93.3278 15.9336C93.3278 17.0259 93.5542 18.005 94.0071 18.8642C94.46 19.7234 95.0795 20.3961 95.8521 20.8757C96.6314 21.3553 97.4839 21.595 98.4164 21.595C99.2556 21.595 100.008 21.4219 100.668 21.0822C101.327 20.7425 101.847 20.3096 102.226 19.7967H102.326C102.286 20.516 102.959 21.4152 103.811 21.4152H105.723C105.83 21.4152 105.916 21.3286 105.916 21.222V19.7101C105.916 19.6035 105.83 19.517 105.723 19.517L105.736 19.5236ZM101.773 17.9384C101.467 18.4979 101.061 18.9242 100.561 19.2106C100.062 19.497 99.522 19.6435 98.9426 19.6435C98.3631 19.6435 97.8369 19.497 97.3307 19.1972C96.8245 18.9042 96.4182 18.4713 96.1052 17.9051C95.7988 17.339 95.6389 16.6796 95.6389 15.9336C95.6389 15.1876 95.7921 14.5349 96.1052 13.9887C96.4116 13.4426 96.8179 13.0296 97.3174 12.7432C97.8169 12.4568 98.3564 12.3169 98.9359 12.3169C99.5154 12.3169 100.055 12.4635 100.554 12.7499C101.054 13.0363 101.46 13.4626 101.767 14.0154C102.073 14.5682 102.233 15.2209 102.233 15.9669C102.233 16.7129 102.08 17.3723 101.767 17.9318L101.773 17.9384Z" fill="white"/>
<path d="M109.579 18.105V6.91532C109.579 6.80875 109.493 6.72217 109.386 6.72217H107.501C107.395 6.72217 107.308 6.80875 107.308 6.91532V18.4114C107.308 19.477 107.575 20.2497 108.121 20.7226C108.66 21.1954 109.44 21.4352 110.452 21.4352H112.037C112.144 21.4352 112.23 21.3486 112.23 21.2421V19.7568C112.23 19.6502 112.144 19.5636 112.037 19.5636H109.586V18.1183L109.579 18.105Z" fill="white"/>
<path d="M143.215 19.5236H141.983V10.7384C141.983 10.6318 141.896 10.5453 141.79 10.5453H139.905C139.798 10.5453 139.712 10.6318 139.712 10.7384V12.1238C139.332 11.6243 138.819 11.2046 138.18 10.8716C137.54 10.5386 136.794 10.3654 135.942 10.3654C134.996 10.3654 134.13 10.5985 133.344 11.0648C132.558 11.531 131.945 12.1837 131.486 13.0296C131.033 13.8688 130.806 14.8413 130.806 15.9336C130.806 17.0259 131.033 18.005 131.486 18.8642C131.939 19.7234 132.558 20.3961 133.331 20.8757C134.11 21.3553 134.963 21.595 135.895 21.595C136.734 21.595 137.487 21.4219 138.146 21.0822C138.806 20.7425 139.325 20.3096 139.705 19.7967H139.805C139.765 20.516 140.438 21.4152 141.29 21.4152H143.202C143.308 21.4152 143.395 21.3286 143.395 21.222V19.7101C143.395 19.6035 143.308 19.517 143.202 19.517L143.215 19.5236ZM139.252 17.9384C138.946 18.4979 138.539 18.9242 138.04 19.2106C137.54 19.497 137.001 19.6435 136.421 19.6435C135.842 19.6435 135.316 19.497 134.809 19.1972C134.303 18.9042 133.897 18.4713 133.584 17.9051C133.278 17.339 133.118 16.6796 133.118 15.9336C133.118 15.1876 133.271 14.5349 133.584 13.9887C133.89 13.4426 134.297 13.0296 134.796 12.7432C135.296 12.4568 135.835 12.3169 136.415 12.3169C136.994 12.3169 137.534 12.4635 138.033 12.7499C138.533 13.0363 138.939 13.4626 139.245 14.0154C139.552 14.5682 139.712 15.2209 139.712 15.9669C139.712 16.7129 139.558 17.3723 139.245 17.9318L139.252 17.9384Z" fill="white"/>
</svg>
