<svg id="Layer_1" data-name="Layer 1" xmlns="http://www.w3.org/2000/svg" viewBox="0 0 284.68 80.41"><defs><style>.cls-1{fill:#3f3b39;}</style></defs><title>zityhub_ICON</title><path class="cls-1" d="M0,55.9,23.78,29V28.7H.26V19.06H38v9.82L14.78,55.18v.27H39.19v9.82H0Z"/><path class="cls-1" d="M45.22,19.06H57.48V65.27H45.22Z"/><path class="cls-1" d="M62.7,19.06h6.4V4.64h12V19.06H89v8.11H81.08v24.5c0,3.42,1.89,4.59,4.59,4.59,1.54,0,3.61-.09,3.61-.09v9s-2.79.18-7.66.18c-6,0-12.52-2.34-12.52-11.08V27.17H62.7Z"/><path class="cls-1" d="M97.26,70.77h4.32c4.87,0,6.85-2.52,6.85-6.31,0-2.52-.9-5.49-3.51-12.52L92.48,19.06h12.89l6.84,20.81c1.44,4.23,3,10.09,3,10.09h.18s1.26-5.86,2.7-10.09l6.49-20.81H136.9L120.77,66.44c-3.51,10.28-6.94,14-16.31,14h-7.2Z"/><path class="cls-1" d="M153.24,25.09h.27c3.33-4.86,7.12-7.29,13.42-7.29,9.55,0,15.95,7.2,15.95,17.29V65.27H170.63V36.9c0-5-2.89-8.47-8-8.47-5.41,0-9.37,4.32-9.37,10.63V65.27H141V.86h12.25Z"/><path class="cls-1" d="M219.63,65.27v-5.4h-.27c-3.15,4.23-6.75,6.67-13.24,6.67-10.27,0-16-6.58-16-16.67V19.06h12.17V47.8c0,5.4,2.43,8.37,7.65,8.37,5.77,0,9.28-4.32,9.28-10.45V19.06h12.26V65.27Z"/><path class="cls-1" d="M251.35,59.51h-.18v5.76H239.36V.86h12.26V24.64h.27a14.44,14.44,0,0,1,12.88-6.84c11.62,0,19.91,10,19.91,24.41,0,15-7.93,24.42-19.55,24.42C258.64,66.63,254.05,63.83,251.35,59.51Zm20.9-17.3c0-8.56-3.43-14.5-10.27-14.5-7.75,0-10.63,6.21-10.63,14.77s4.23,13.87,11.08,13.87C268.73,56.35,272.25,51.13,272.25,42.21Z"/><circle class="cls-1" cx="51.35" cy="6.35" r="6.35"/></svg>