<svg width="112" height="16" viewBox="0 0 112 16" fill="#D1A4C4" xmlns="http://www.w3.org/2000/svg">
<path d="M15.0529 1.90116V15.2355C15.0529 15.3421 14.9663 15.4286 14.8597 15.4286H12.9948C12.8882 15.4286 12.8016 15.3421 12.8016 15.2355V6.03068L8.66543 15.3154C8.63213 15.382 8.56552 15.4286 8.48559 15.4286H7.18013C7.10687 15.4286 7.03361 15.382 7.0003 15.3154L2.84414 6.03068V15.2355C2.84414 15.3421 2.75756 15.4286 2.65099 15.4286H0.786051C0.679483 15.4286 0.592896 15.3421 0.592896 15.2355V1.90116C0.592896 1.79459 0.679483 1.70801 0.786051 1.70801H2.89743C2.9707 1.70801 3.04396 1.75463 3.07726 1.82124L7.84618 12.4647L12.5951 1.82124C12.6284 1.75463 12.695 1.70801 12.775 1.70801H14.8664C14.9729 1.70801 15.0595 1.79459 15.0595 1.90116H15.0529Z" fill="#D1A4C4"/>
<path d="M27.6545 4.74509V15.2354C27.6545 15.342 27.5679 15.4285 27.4613 15.4285H25.5964C25.4898 15.4285 25.4032 15.342 25.4032 15.2354V14.1431C25.0502 14.5893 24.584 14.9423 24.0112 15.2021C23.4384 15.4618 22.8323 15.5884 22.1862 15.5884C21.327 15.5884 20.561 15.4086 19.8883 15.0556C19.2156 14.7025 18.6761 14.1764 18.2898 13.477C17.9035 12.7777 17.7103 11.9384 17.7103 10.9527V4.75175C17.7103 4.64518 17.7969 4.55859 17.9035 4.55859H19.7484C19.855 4.55859 19.9416 4.64518 19.9416 4.75175V10.6197C19.9416 11.5921 20.188 12.3381 20.6743 12.8576C21.1605 13.3771 21.8265 13.6369 22.6657 13.6369C23.505 13.6369 24.1777 13.3771 24.6706 12.8576C25.1634 12.3381 25.4099 11.5921 25.4099 10.6197V4.75175C25.4099 4.64518 25.4965 4.55859 25.603 4.55859H27.468C27.5745 4.55859 27.6611 4.64518 27.6611 4.75175L27.6545 4.74509Z" fill="#D1A4C4"/>
<path d="M47.383 4.74509V15.2354C47.383 15.342 47.2964 15.4285 47.1898 15.4285H45.3249C45.2183 15.4285 45.1317 15.342 45.1317 15.2354V14.1431C44.7787 14.5893 44.3125 14.9423 43.7397 15.2021C43.1669 15.4618 42.5608 15.5884 41.9147 15.5884C41.0555 15.5884 40.2895 15.4086 39.6168 15.0556C38.9441 14.7025 38.4046 14.1764 38.0183 13.477C37.632 12.7777 37.4388 11.9384 37.4388 10.9527V4.75175C37.4388 4.64518 37.5254 4.55859 37.632 4.55859H39.477C39.5835 4.55859 39.6701 4.64518 39.6701 4.75175V10.6197C39.6701 11.5921 39.9165 12.3381 40.4028 12.8576C40.889 13.3771 41.555 13.6369 42.3943 13.6369C43.2335 13.6369 43.9062 13.3771 44.3991 12.8576C44.8919 12.3381 45.1384 11.5921 45.1384 10.6197V4.75175C45.1384 4.64518 45.225 4.55859 45.3315 4.55859H47.1965C47.303 4.55859 47.3896 4.64518 47.3896 4.75175L47.383 4.74509Z" fill="#D1A4C4"/>
<path d="M71.7936 4.74516V15.2355C71.7936 15.342 71.707 15.4286 71.6004 15.4286H69.7355C69.629 15.4286 69.5424 15.342 69.5424 15.2355V4.74516C69.5424 4.63859 69.629 4.552 69.7355 4.552H71.6004C71.707 4.552 71.7936 4.63859 71.7936 4.74516Z" fill="#D1A4C4"/>
<path d="M71.8536 0.542276V2.50713C71.8536 2.61369 71.767 2.70028 71.6605 2.70028H69.6823C69.5757 2.70028 69.4891 2.61369 69.4891 2.50713V0.542276C69.4891 0.435708 69.5757 0.349121 69.6823 0.349121H71.6605C71.767 0.349121 71.8536 0.435708 71.8536 0.542276Z" fill="#D1A4C4"/>
<path d="M74.3979 7.03627C74.8508 6.19705 75.4702 5.53766 76.2562 5.07142C77.0421 4.60519 77.908 4.37207 78.8737 4.37207C79.5864 4.37207 80.2858 4.52526 80.9785 4.83831C81.6711 5.14469 82.2173 5.55764 82.6236 6.0705V1.01518C82.6236 0.908608 82.7102 0.822021 82.8168 0.822021H84.7017C84.8083 0.822021 84.8948 0.908608 84.8948 1.01518V15.2354C84.8948 15.3419 84.8083 15.4285 84.7017 15.4285H82.8168C82.7102 15.4285 82.6236 15.3419 82.6236 15.2354V13.79C82.2573 14.3162 81.7444 14.7491 81.0917 15.0955C80.439 15.4418 79.693 15.6083 78.8538 15.6083C77.908 15.6083 77.0421 15.3686 76.2562 14.889C75.4702 14.4095 74.8575 13.7367 74.3979 12.8775C73.945 12.0183 73.7185 11.0392 73.7185 9.94691C73.7185 8.85459 73.945 7.88882 74.3979 7.04293V7.03627ZM82.1574 8.02203C81.851 7.46921 81.4447 7.04959 80.9452 6.75653C80.4456 6.46347 79.9061 6.3236 79.3267 6.3236C78.7472 6.3236 78.2077 6.46347 77.7082 6.74987C77.2086 7.03627 76.8023 7.44922 76.4959 7.99539C76.1896 8.54155 76.0297 9.18762 76.0297 9.94025C76.0297 10.6929 76.1829 11.3456 76.4959 11.9118C76.8023 12.4779 77.2153 12.9108 77.7215 13.2039C78.2277 13.497 78.7672 13.6502 79.3333 13.6502C79.8995 13.6502 80.4523 13.5036 80.9518 13.2172C81.4514 12.9308 81.8576 12.5045 82.164 11.9451C82.4704 11.3856 82.6303 10.7329 82.6303 9.98022C82.6303 9.22758 82.4771 8.58151 82.164 8.02869L82.1574 8.02203Z" fill="#D1A4C4"/>
<path d="M101.013 7.03627C101.466 6.19705 102.086 5.53766 102.872 5.07142C103.658 4.60519 104.523 4.37207 105.489 4.37207C106.202 4.37207 106.901 4.52526 107.594 4.83831C108.287 5.14469 108.833 5.55764 109.239 6.0705V1.01518C109.239 0.908608 109.326 0.822021 109.432 0.822021H111.317C111.424 0.822021 111.51 0.908608 111.51 1.01518V15.2354C111.51 15.3419 111.424 15.4285 111.317 15.4285H109.432C109.326 15.4285 109.239 15.3419 109.239 15.2354V13.79C108.873 14.3162 108.36 14.7491 107.707 15.0955C107.054 15.4418 106.308 15.6083 105.469 15.6083C104.523 15.6083 103.658 15.3686 102.872 14.889C102.086 14.4095 101.473 13.7367 101.013 12.8775C100.56 12.0183 100.334 11.0392 100.334 9.94691C100.334 8.85459 100.56 7.88882 101.013 7.04293V7.03627ZM108.773 8.02203C108.466 7.46921 108.06 7.04959 107.561 6.75653C107.061 6.46347 106.522 6.3236 105.942 6.3236C105.363 6.3236 104.823 6.46347 104.324 6.74987C103.824 7.03627 103.418 7.44922 103.111 7.99539C102.805 8.54155 102.645 9.18762 102.645 9.94025C102.645 10.6929 102.798 11.3456 103.111 11.9118C103.418 12.4779 103.831 12.9108 104.337 13.2039C104.843 13.497 105.383 13.6502 105.949 13.6502C106.515 13.6502 107.068 13.5036 107.567 13.2172C108.067 12.9308 108.473 12.5045 108.78 11.9451C109.086 11.3856 109.246 10.7329 109.246 9.98022C109.246 9.22758 109.093 8.58151 108.78 8.02869L108.773 8.02203Z" fill="#D1A4C4"/>
<path d="M35.7071 6.38353C35.8136 6.38353 35.9002 6.29694 35.9002 6.19037V4.73838C35.9002 4.63182 35.8136 4.54523 35.7071 4.54523H33.256V2.03422C33.256 1.92765 33.1694 1.84106 33.0629 1.84106H31.1779C31.0714 1.84106 30.9848 1.92765 30.9848 2.03422V4.54523H29.5061C29.3996 4.54523 29.313 4.63182 29.313 4.73838V6.19037C29.313 6.29694 29.3996 6.38353 29.5061 6.38353H30.9848V12.4046C30.9848 13.4703 31.2512 14.2429 31.7974 14.7158C32.3369 15.1887 33.1161 15.4285 34.1285 15.4285H35.7137C35.8203 15.4285 35.9069 15.3419 35.9069 15.2353V13.75C35.9069 13.6435 35.8203 13.5569 35.7137 13.5569H33.2627V6.39019H35.7137L35.7071 6.38353Z" fill="#D1A4C4"/>
<path d="M61.7363 13.5237H60.5041V4.73847C60.5041 4.6319 60.4175 4.54531 60.3109 4.54531H58.426C58.3194 4.54531 58.2328 4.6319 58.2328 4.73847V6.12385C57.8532 5.62431 57.3403 5.2047 56.7009 4.87168C56.0615 4.53865 55.3155 4.36548 54.463 4.36548C53.5172 4.36548 52.6513 4.5986 51.8654 5.06483C51.0795 5.53107 50.4667 6.1838 50.0071 7.02968C49.5542 7.8689 49.3278 8.84134 49.3278 9.93366C49.3278 11.026 49.5542 12.0051 50.0071 12.8643C50.46 13.7235 51.0795 14.3962 51.8521 14.8758C52.6314 15.3553 53.4839 15.5951 54.4164 15.5951C55.2556 15.5951 56.0082 15.4219 56.6676 15.0822C57.327 14.7425 57.8465 14.3096 58.2262 13.7968H58.3261C58.2861 14.5161 58.9588 15.4153 59.8114 15.4153H61.723C61.8295 15.4153 61.9161 15.3287 61.9161 15.2221V13.7102C61.9161 13.6036 61.8295 13.517 61.723 13.517L61.7363 13.5237ZM57.7733 11.9385C57.4669 12.498 57.0606 12.9242 56.5611 13.2106C56.0615 13.497 55.522 13.6436 54.9426 13.6436C54.3631 13.6436 53.8369 13.497 53.3307 13.1973C52.8245 12.9042 52.4182 12.4713 52.1052 11.9052C51.7988 11.339 51.6389 10.6796 51.6389 9.93366C51.6389 9.18768 51.7921 8.53496 52.1052 7.98879C52.4116 7.44263 52.8179 7.02968 53.3174 6.74328C53.8169 6.45688 54.3564 6.31701 54.9359 6.31701C55.5154 6.31701 56.0549 6.46354 56.5544 6.74994C57.0539 7.03634 57.4602 7.46261 57.7666 8.01544C58.073 8.56826 58.2328 9.22099 58.2328 9.96696C58.2328 10.7129 58.0797 11.3723 57.7666 11.9318L57.7733 11.9385Z" fill="#D1A4C4"/>
<path d="M65.5793 12.105V0.915323C65.5793 0.808755 65.4928 0.722168 65.3862 0.722168H63.5013C63.3947 0.722168 63.3081 0.808755 63.3081 0.915323V12.4114C63.3081 13.477 63.5745 14.2497 64.1207 14.7226C64.6602 15.1954 65.4395 15.4352 66.4519 15.4352H68.0371C68.1436 15.4352 68.2302 15.3486 68.2302 15.2421V13.7568C68.2302 13.6502 68.1436 13.5636 68.0371 13.5636H65.586V12.1183L65.5793 12.105Z" fill="#D1A4C4"/>
<path d="M99.2149 13.5237H97.9827V4.73847C97.9827 4.6319 97.8961 4.54531 97.7896 4.54531H95.9047C95.7981 4.54531 95.7115 4.6319 95.7115 4.73847V6.12385C95.3319 5.62431 94.819 5.2047 94.1796 4.87168C93.5402 4.53865 92.7942 4.36548 91.9417 4.36548C90.9959 4.36548 90.13 4.5986 89.344 5.06483C88.5581 5.53107 87.9453 6.1838 87.4858 7.02968C87.0329 7.8689 86.8064 8.84134 86.8064 9.93366C86.8064 11.026 87.0329 12.0051 87.4858 12.8643C87.9387 13.7235 88.5581 14.3962 89.3307 14.8758C90.11 15.3553 90.9626 15.5951 91.895 15.5951C92.7342 15.5951 93.4869 15.4219 94.1463 15.0822C94.8057 14.7425 95.3252 14.3096 95.7048 13.7968H95.8047C95.7648 14.5161 96.4375 15.4153 97.29 15.4153H99.2016C99.3082 15.4153 99.3948 15.3287 99.3948 15.2221V13.7102C99.3948 13.6036 99.3082 13.517 99.2016 13.517L99.2149 13.5237ZM95.2519 11.9385C94.9455 12.498 94.5392 12.9242 94.0397 13.2106C93.5402 13.497 93.0007 13.6436 92.4212 13.6436C91.8417 13.6436 91.3156 13.497 90.8094 13.1973C90.3032 12.9042 89.8969 12.4713 89.5838 11.9052C89.2774 11.339 89.1176 10.6796 89.1176 9.93366C89.1176 9.18768 89.2708 8.53496 89.5838 7.98879C89.8902 7.44263 90.2965 7.02968 90.796 6.74328C91.2956 6.45688 91.8351 6.31701 92.4145 6.31701C92.994 6.31701 93.5335 6.46354 94.0331 6.74994C94.5326 7.03634 94.9389 7.46261 95.2453 8.01544C95.5516 8.56826 95.7115 9.22099 95.7115 9.96696C95.7115 10.7129 95.5583 11.3723 95.2453 11.9318L95.2519 11.9385Z" fill="#D1A4C4"/>
</svg>
